<?xml version="1.0" standalone="no"?>
<!DOCTYPE svg PUBLIC "-//W3C//DTD SVG 20010904//EN"
 "http://www.w3.org/TR/2001/REC-SVG-20010904/DTD/svg10.dtd">
<svg version="1.0" xmlns="http://www.w3.org/2000/svg"
 width="179.000000pt" height="179.000000pt" viewBox="0 0 179.000000 179.000000"
 preserveAspectRatio="xMidYMid meet">
<metadata>
Created by potrace 1.14, written by Peter Selinger 2001-2017
</metadata>
<g transform="translate(0.000000,179.000000) scale(0.100000,-0.100000)"
fill="#000000" stroke="none">
<path d="M631 1739 c11 -29 24 -60 29 -70 6 -11 6 -27 1 -42 -7 -18 -3 -38 15
-83 57 -135 61 -150 57 -182 -4 -24 4 -52 32 -107 30 -61 35 -78 25 -90 -7 -8
-18 -15 -24 -15 -20 0 -103 94 -110 124 -4 16 -42 66 -87 114 -54 58 -79 93
-79 109 0 16 -20 45 -57 84 -32 32 -61 59 -65 59 -18 0 -5 -24 37 -68 29 -29
43 -52 40 -62 -3 -10 4 -37 15 -61 11 -24 20 -38 20 -30 0 22 120 -102 120
-125 0 -25 22 -74 33 -74 5 0 5 -5 1 -12 -4 -6 -3 -8 4 -5 17 11 40 -3 63 -39
21 -35 19 -68 -5 -77 -16 -6 -131 65 -139 86 -3 8 -53 40 -110 72 -78 42 -107
64 -111 81 -5 18 -29 35 -96 69 -53 27 -92 41 -95 35 -4 -6 22 -23 57 -40 72
-32 81 -40 97 -92 12 -36 46 -77 39 -47 -5 22 11 17 89 -25 41 -23 76 -49 82
-63 7 -15 36 -36 77 -55 36 -17 68 -37 71 -45 4 -9 -6 -25 -23 -39 -39 -31
-93 -32 -131 0 -21 18 -53 27 -138 40 -75 11 -114 22 -122 33 -13 16 -56 26
-183 39 -92 10 -66 -8 31 -22 54 -8 88 -18 102 -32 21 -18 76 -31 199 -47 33
-4 51 -12 58 -26 10 -18 7 -19 -44 -19 -65 0 -154 -31 -185 -64 -12 -13 -25
-36 -30 -52 -8 -31 -33 -48 -96 -64 -47 -12 -72 -26 -63 -36 4 -3 28 1 54 10
59 20 111 22 96 3 -8 -9 2 -25 39 -62 28 -28 55 -58 60 -67 5 -10 16 -18 24
-18 8 0 15 -4 15 -8 0 -5 10 -14 22 -20 l23 -11 -25 0 c-28 -1 -210 -133 -192
-139 12 -4 36 13 107 71 19 16 39 26 45 22 6 -4 25 -2 43 4 39 13 53 13 49 -2
-2 -7 1 -7 10 0 7 6 38 16 68 21 30 6 75 18 99 26 24 9 46 15 47 13 2 -2 -19
-39 -46 -82 -28 -44 -50 -82 -50 -86 0 -4 -15 -16 -32 -26 -34 -20 -113 -152
-105 -176 3 -10 12 0 54 70 8 14 20 20 32 18 11 -2 22 3 25 11 3 8 2 12 -4 9
-5 -3 22 42 60 99 65 98 98 138 84 102 -5 -13 0 -15 25 -10 38 8 50 -14 27
-48 -9 -12 -16 -33 -16 -46 0 -13 -11 -38 -24 -55 -22 -30 -24 -44 -30 -192
-3 -88 -3 -170 0 -182 6 -22 11 -23 100 -23 92 0 123 12 64 25 -39 9 -29 25
16 25 48 0 42 14 -13 29 l-48 14 38 9 c39 11 50 28 17 28 -11 0 -20 5 -20 11
0 6 9 13 20 16 26 7 25 19 -2 34 l-22 12 24 9 c17 6 21 11 12 17 -9 5 -6 11
10 18 33 16 112 33 150 32 31 0 32 -1 11 -11 -13 -6 -23 -17 -23 -25 0 -15 36
-18 45 -3 8 12 25 13 25 2 0 -5 -16 -17 -35 -28 -19 -10 -35 -24 -35 -31 0
-16 10 -16 44 -3 39 14 31 -4 -10 -26 -44 -23 -45 -40 -3 -36 36 3 31 -11 -11
-28 -37 -15 -38 -26 -2 -35 27 -7 27 -7 5 -16 -55 -21 -1 -43 92 -37 l50 3 -3
200 c-2 110 -8 233 -14 274 -10 68 -10 75 7 87 16 12 22 11 42 -7 12 -12 20
-26 16 -32 -3 -6 -1 -7 6 -3 7 4 33 -14 66 -47 50 -49 60 -69 56 -104 -1 -6 7
-14 18 -18 11 -3 50 -35 87 -70 37 -36 71 -62 76 -59 5 3 -22 39 -61 79 -39
40 -71 80 -71 88 0 8 -36 52 -80 98 -44 46 -80 89 -80 95 0 7 -11 26 -25 42
-24 29 -35 69 -15 57 9 -6 14 14 11 43 -1 6 2 12 6 12 16 0 72 -40 82 -58 6
-11 48 -39 93 -62 106 -53 122 -68 127 -122 1 -5 6 -8 12 -8 8 0 8 5 -1 15 -7
8 -10 15 -7 15 4 0 112 -44 165 -67 6 -3 12 0 12 6 0 6 -28 24 -62 40 -35 16
-75 42 -90 58 -15 17 -65 48 -111 71 -47 23 -87 48 -90 56 -4 9 -31 28 -62 43
-55 27 -76 56 -56 76 6 6 11 21 11 34 0 21 5 23 48 23 52 0 82 -20 82 -54 0
-21 28 -32 43 -17 8 8 6 11 -8 11 -12 0 -15 3 -9 9 5 6 45 7 103 1 75 -7 98
-13 115 -30 19 -19 19 -20 2 -14 -16 6 -17 5 -7 -14 14 -27 53 -30 49 -5 -3
15 7 17 82 15 95 -3 93 11 -5 23 -32 4 -64 13 -70 21 -10 14 -119 33 -191 34
-26 0 -51 7 -67 20 -19 15 -40 20 -85 20 -42 0 -65 5 -76 16 -9 8 -16 17 -16
18 0 2 16 19 35 39 40 41 65 57 91 57 14 0 15 -3 6 -12 -18 -18 -15 -28 9 -28
16 0 19 4 14 20 -5 14 -2 20 10 20 9 0 51 14 92 30 60 24 85 29 117 25 33 -5
60 1 136 30 103 40 139 62 80 50 -19 -4 -63 -17 -96 -30 -51 -18 -64 -19 -79
-9 -15 11 -24 10 -54 -2 -104 -45 -173 -63 -197 -52 -24 11 -33 28 -15 28 13
0 107 150 103 165 -1 7 5 18 13 25 10 9 15 9 15 1 0 -6 -4 -11 -10 -11 -5 0
-10 -4 -10 -10 0 -15 60 -4 78 15 16 16 16 17 -6 5 -21 -10 -23 -10 -14 7 6
10 34 38 64 63 60 50 125 120 111 120 -4 0 -42 -29 -82 -65 -57 -50 -79 -63
-96 -59 -15 4 -32 -3 -52 -20 l-30 -25 -6 54 c-3 30 -18 81 -33 115 l-27 60
42 90 c22 50 41 95 41 100 0 20 -21 9 -30 -16 -16 -42 -72 -154 -77 -154 -2 0
-17 7 -32 15 -58 29 -155 -28 -196 -117 l-23 -49 6 68 c3 43 14 85 30 117 18
36 26 71 30 132 6 100 -13 118 -24 24 -4 -40 -13 -65 -24 -73 -17 -12 -40
-127 -40 -199 0 -17 -7 -39 -15 -48 -9 -9 -19 -47 -23 -83 -13 -102 -70 -150
-109 -91 -15 23 -15 32 -3 87 8 34 15 103 16 152 2 50 6 104 9 120 4 17 9 67
12 113 4 72 2 82 -12 82 -15 0 -16 -7 -11 -45 6 -37 4 -50 -14 -72 -19 -24
-20 -34 -14 -128 6 -87 4 -105 -11 -128 -14 -22 -16 -40 -10 -105 6 -67 4 -80
-10 -92 -15 -13 -20 -12 -36 9 -23 29 -38 81 -32 114 3 14 -5 46 -17 73 -36
81 -60 155 -60 188 0 39 -61 186 -77 186 -9 0 -7 -15 8 -51z m657 -212 c19
-15 14 -27 -15 -38 -66 -25 -151 -122 -169 -193 -3 -14 -10 -26 -14 -26 -21 0
-20 26 4 98 21 63 35 87 74 124 61 59 81 65 120 35z m25 -84 c-32 -22 -29 -36
7 -28 37 8 42 -16 8 -39 -26 -19 -18 -32 10 -17 12 6 23 11 26 11 12 0 5 -28
-9 -40 -18 -15 -10 -31 12 -23 14 5 15 0 11 -40 -7 -59 -54 -124 -142 -196
-66 -53 -96 -60 -96 -23 0 27 97 135 137 151 18 7 33 16 33 20 0 4 -34 7 -75
7 -78 -1 -90 -7 -52 -27 12 -6 24 -13 26 -16 7 -6 -62 -73 -75 -73 -23 0 -24
17 -3 45 19 23 20 31 10 64 -18 60 -14 75 34 140 50 68 132 128 149 110 8 -8
4 -15 -11 -26z m-263 -186 c0 -11 10 -27 23 -38 12 -10 17 -18 10 -19 -19 0
-53 50 -53 79 0 20 2 23 10 11 5 -8 10 -23 10 -33z m-5 -64 c14 -15 25 -33 25
-40 0 -20 -74 -16 -100 5 -19 16 -21 22 -11 40 16 30 55 28 86 -5z m-147 -12
c2 -12 -2 -29 -8 -36 -18 -21 -6 -55 36 -103 30 -36 34 -45 23 -58 -22 -27
-53 -13 -63 29 -5 20 -13 37 -18 37 -10 0 -10 1 7 -65 16 -64 12 -83 -21 -95
-34 -13 -49 -4 -68 42 -9 23 -19 39 -22 35 -4 -3 1 -25 10 -47 12 -30 13 -46
6 -60 -8 -15 -6 -20 11 -25 25 -8 23 -53 -4 -69 -15 -9 -23 -6 -45 21 -65 78
-95 129 -100 170 -4 40 -2 46 35 80 23 21 48 50 58 66 13 20 25 27 49 27 27 0
34 5 44 34 18 49 64 60 70 17z m232 17 c0 -19 -18 -43 -25 -36 -9 9 4 48 16
48 5 0 9 -6 9 -12z m-190 -73 c10 -12 25 -14 71 -9 69 8 109 -11 109 -51 0
-13 5 -35 11 -49 9 -19 9 -29 0 -40 -9 -11 -8 -15 4 -20 27 -10 15 -59 -15
-66 l-25 -6 28 -7 c49 -13 28 -94 -21 -83 l-27 6 23 -16 c22 -16 27 -38 16
-68 -9 -24 -25 -19 -66 21 -21 20 -38 32 -38 25 0 -6 19 -29 42 -51 l41 -40
-18 -63 c-10 -35 -25 -71 -34 -80 -16 -17 -117 -48 -158 -48 -12 0 -46 -9 -74
-20 -49 -20 -52 -20 -71 -3 -16 14 -18 25 -13 62 5 31 2 55 -10 81 -15 33 -15
40 -2 73 19 45 58 71 93 63 14 -4 28 -16 31 -26 7 -28 23 -25 23 4 0 13 10 36
22 51 l22 28 -26 -6 c-21 -6 -30 -2 -42 15 -9 12 -16 32 -16 45 0 17 7 23 34
29 43 7 54 1 63 -37 l8 -30 31 28 c17 15 40 43 53 60 20 29 21 37 10 71 -7 25
-22 45 -39 56 -38 22 -80 73 -80 97 0 23 23 25 40 4z m-350 -155 c14 -7 17
-19 15 -46 -6 -60 -55 -78 -55 -20 0 25 -7 40 -26 55 l-27 21 37 0 c21 0 46
-4 56 -10z m404 -23 c13 -21 -10 -70 -36 -75 -22 -4 -48 25 -48 54 0 41 62 57
84 21z m-507 -4 c17 -3 34 -11 37 -19 4 -11 -8 -14 -61 -14 -84 0 -137 -16
-192 -57 -48 -36 -65 -33 -59 12 6 54 99 98 188 89 30 -3 69 -8 87 -11z m59
-94 c30 -32 40 -33 117 -14 21 6 27 4 27 -8 0 -10 -21 -23 -55 -36 -75 -28
-85 -27 -85 9 0 42 -18 38 -26 -6 -3 -19 -18 -49 -31 -65 -33 -39 -22 -49 17
-16 17 15 47 29 68 33 20 4 57 16 82 26 37 16 48 17 67 7 13 -7 22 -17 20 -23
-4 -15 -136 -80 -204 -101 -88 -28 -193 -6 -161 33 11 13 8 14 -19 8 -39 -9
-51 7 -21 28 26 19 15 35 -12 18 -45 -28 -68 -5 -27 28 29 24 15 37 -18 16
-25 -16 -45 -14 -45 4 0 30 148 89 221 90 49 0 59 -4 85 -31z m59 1 c3 -5 -1
-10 -9 -10 -9 0 -16 5 -16 10 0 6 4 10 9 10 6 0 13 -4 16 -10z m467 -357 c8
-35 -13 -69 -59 -96 -60 -37 -168 -77 -204 -77 -28 0 -29 2 -29 49 0 61 15 78
78 86 26 3 79 16 117 29 87 30 93 30 97 9z m-323 -69 c23 -29 26 -55 11 -85
-23 -41 -80 -8 -80 47 0 68 32 86 69 38z"/>
<path d="M820 386 c0 -32 20 -44 36 -22 16 23 7 46 -17 46 -13 0 -19 -7 -19
-24z"/>
<path d="M525 1110 c3 -5 10 -10 16 -10 5 0 9 5 9 10 0 6 -7 10 -16 10 -8 0
-12 -4 -9 -10z"/>
<path d="M200 1040 c0 -5 7 -10 15 -10 8 0 15 5 15 10 0 6 -7 10 -15 10 -8 0
-15 -4 -15 -10z"/>
<path d="M1542 1038 c7 -19 45 -22 45 -3 0 9 -9 15 -24 15 -15 0 -23 -5 -21
-12z"/>
<path d="M309 529 c-8 -5 -8 -9 0 -13 6 -4 11 -3 11 3 0 6 6 8 14 5 8 -3 16
-2 19 3 6 10 -29 12 -44 2z"/>
<path d="M1300 342 c0 -12 19 -26 26 -19 2 2 -2 10 -11 17 -9 8 -15 8 -15 2z"/>
</g>
</svg>
